<?xml version="1.0" encoding="utf-8"?>
<!-- Generator: Adobe Illustrator 26.0.3, SVG Export Plug-In . SVG Version: 6.00 Build 0)  -->
<svg version="1.1" xmlns="http://www.w3.org/2000/svg" xmlns:xlink="http://www.w3.org/1999/xlink" x="0px" y="0px"
	 viewBox="0 0 381 751" style="enable-background:new 0 0 381 751;" xml:space="preserve">
<style type="text/css">
	.st0{opacity:0.4;}
	.st1{fill:#D6877B;}
	.st2{fill:#422526;}
	.st3{fill:#FFFFFF;}
	.st4{fill:#67A2D7;}
	.st5{fill:#040711;}
	.st6{fill:#7E301E;}
	.st7{fill:#0E2342;}
	.st8{fill:none;stroke:#67A2D7;stroke-width:2;stroke-miterlimit:10;}
</style>
<g id="Layer_2">
</g>
<g id="Layer_3">
	<path class="st0" d="M282.2,691.8c-18.5-3.1-11.3-7.9,7.3-26.6c0.4-0.4,0.5-1.1,0.2-1.6c-14.3-26.4-0.9-11-0.5-32.3
		c0-0.6,0.4-1.1,0.9-1.2c0.5-0.1,0.9-0.2,1.2-0.4c0.7-0.3,1-1.1,0.6-1.8c-2.3-4.7,14.4,0,17.1-8.1c0.1-0.2,0.1-0.5,0-0.7
		c-2.4-13.5,7.3-19.9-7.6-26c-0.6-0.2-0.9-0.9-0.7-1.6c6.9-22.4-50.4-21-66.5-22.6c11.7-0.1,32.4,1.3,26.1-10.1
		c-0.3-0.6-0.2-1.3,0.3-1.7c1.2-1,2.4-1.9-0.8-3c-33.6-7.4-74.6-13.3-106.8-0.9c-3.1,1.1,1,2.4-2,3c-3,0.6,3,2.2,0.9,3.2
		c-3.3,1.8,4.1,2.5,3.1,4.5c0.1,6.1,29.4,3.9,15.7,5.3c-0.1,0-0.1,0-0.2,0c-16.5-1.2-85.3,6.6-91.8,24.9c-0.1,0.3-0.3,0.6-0.6,0.7
		c-8.4,4.4,3.1,9.8,7.6,12.2c0.4,0.2,0.6,0.6,0.6,1c0.1,3.7,4.4,5.9,10.5,6.1c6.6,0.1,12.5,1.3,17.3-0.4c1.1-0.4,1-2.1-0.1-2.5
		c0,0,0,0,0,0s1.2-0.1,1.5-0.4c0.2-0.3,0.5-0.6,0.8-0.6c11.2-2-5.1-4.6-9.6-7c-0.7-0.4-0.9-1.3-0.4-1.9c5.1-7.2,18.5-2.2,22-9.5
		c0.4-0.8,1.5-0.9,2-0.1c2.9,5.5-18,20,4.4,18.5c-4.3-1.7-23.2,18.2-29,23.2c-0.4,1,6.4-0.8,10,0.5c0.2,0.1,0.3,0.2,0.5,0.3
		c14.8,15.8-48.4,28.3-30.9,41.1c0.3,0.2,0.5,0.5,0.5,0.9c0.9,9.1-18.2,11.6-15.8,17.8c0.2,0.4,0.5,0.7,0.9,0.7
		c9.7,1.2,38,4.8,43.5-2.5c0.3-0.4,0.4-1,0.1-1.4c-2.7-5.4,4.7-6.3,1.9-10c-3.1-2.1,22-10.9,24.1-11.6c0,0,0.1,0,0.1-0.1
		c15.8-7.6,39-34.3,56.2-36.2c12.2-1.5,41.2,12.8,40,26c0,0.4-0.2,0.7-0.6,0.9c-9.2,5.8,4.2,21.8-5.8,27.9c0.2-0.4,2.5,0.2,0.1,0
		c0,0-0.1,0-0.1,0c-10.7,0.4,1.3,2.3-0.6,3.7C201.5,697.4,321.8,696.3,282.2,691.8z M263.6,599.2c0.4,0.3,0.8,0.6,1.3,0.9
		C264.4,599.8,264,599.5,263.6,599.2z M273.9,610.3c0.1,0,0.2,0,0.3,0c3.3-0.7,7.1-0.9,2.3-3.9c2.5,2.3,6.5,4.9,8.9,6.9
		c0.9,0.8,0.3,2.5-0.9,2.2C278.1,614.2,264.4,609.7,273.9,610.3z M262,596.8c-0.2-0.3-0.1-0.4,0.2-0.4
		C262.2,596.5,262.1,596.7,262,596.8z M247.6,690.4c0.7-0.6,1.1-1.2,0.9-1.6C249.6,689.4,247.5,690.7,247.6,690.4z M261.4,586.3
		c0,0.2-0.1,0.5-0.2,1C261.3,586.4,261.4,586,261.4,586.3z M194.7,633.2C194.7,633.2,194.7,633.2,194.7,633.2
		C194.7,633.2,194.7,633.2,194.7,633.2z"/>
</g>
<g id="Layer_1">
	<g>
		<path class="st1" d="M45.6,246.7c-1-0.5-2.9,5.5-3.1,6.6c-1.2,6.7-3.5,22.6-0.4,29.7c4,9.2,8,23.2,10,27.2s-3,7.1,0,13
			c3,6,2,13,7,16s10,4,14,3s2-3,2-3l5-1l1-7l-3-4c0,0,2.3-0.9,1.2-4c-1.2-3,4.4,0.7,4.6-4.7c0.2-5.4-2.8-13.4-2.8-15.4s-5-6-7-8
			s-5-5.8-4-9.9s5-23.1,6-25.1C77,258.5,52.6,250.5,45.6,246.7z"/>
		<path class="st2" d="M50.9,256.4c0,0-2.8,3.9,0,10.1s11,2,11.4,6.6s-3.6,4.6,2.4,8.6s-3.8,10.4,1.6,14.2c5.4,3.8,1.6,15.5,0,17.2
			c-1.6,1.6-3.4,14.3-4,18.5s-0.4,7,4,8.6s-8.6,1.6-9.6-3.4c-1-5-8-15-4.8-20.9c2.2-4-3.9-17.3-8-28.7c-0.9-2.7-3.2-7.5-3.2-12.5
			c0-20,2-26,4-26C48.7,248.7,50.9,256.4,50.9,256.4z"/>
		<path class="st1" d="M169.6,429.7c0,0,9.5,32.5,16.5,47.5s3,19.2,7.5,32.6c4.5,13.4,5.2,34,3.5,41.4c-4,18-3,31,8,58s5,48,5,48
			s15-3,17,4s-6,12.5,0,17.3c6,4.7,18-0.3,14-16.3s-4-23-3-34s3.7-21.2,7-36c3.7-16.5,4.4-27-1-58c-5.8-33.1-3.2-47-1-57
			c2-9,6.4-42.9,3.5-64.5"/>
		<path class="st1" d="M158.1,428.2c0,0-22,42.1-25.5,59.6s-12.5,47.4-15.5,68.4s-11,37-13,40s-8,19-5,29s-0.8,17.1-0.8,17.1
			s-2.2-8.1-3.2-22.1s-21-6-25,1c-4,7,1-9.2,0-21.6c-1-12.4-12.6-37.7,8-92.4c11.5-30.5,1.5-77.5,1.5-77.5s2.5-7.5,36.5-7.5
			s39.7,6.5,39.7,6.5"/>
		<path class="st3" d="M105.1,320.2c0,0-13.5-0.5-18,28c-3.8,24-4,33-8,46s-9,32-9,36s17-3,28-3s51,4,60,1s7.3,2.5,16.2,3.2
			c8.8,0.8,30.5,3.2,39.2,0c8.6-3.2,27.4-12.7,31.6-15.2c5-3,5-8,5-8s-3-8-4-21s-0.4-39-10.2-52.5c-9.8-13.5-10.8-11.5-23.8-14.5
			s-36.5-0.9-52-1C144.6,319.1,120.1,318.2,105.1,320.2z"/>
		<path class="st4" d="M98.1,322.2c0,0-14-1-10-21s3.3-35.8,4.6-46.4c1.4-10.6,1.6-33.1,0-26.9s0.9,16.2-5.4,24.2
			c-6.3,8-6.3,10-13.3,7s-32-7-32-13s8-24,14-42s16-52,31-59s42-11.1,45.5-14.6s8.5-4.4,18.5-4.4s37,2.5,42.5,2.2s17.5,5.8,22.5,8.8
			s31,6.9,37,33.9s5,59.1,8,65.1s-30.5,2.5-38.5,18.5s-2.5-37.5-2.5-44.5s-2,50,3,63s17,40,13,44s-5.2,10-12.1,7
			S197.1,316.2,98.1,322.2z"/>
		<path class="st5" d="M135.4,126.2c0,0-4.8,4.5-7.8,1.5s-11-16-10-22s-3-10-3-13s-2-3.4,0-8.2c2-4.8-3.8-11.9-0.9-14.9
			c2.9-2.9-1.1-8.9,1.9-13.9s2-12,6-17s12-7,15-8s12.2-4,15.1-4c2.9,0,14.1-3,22,0s15.9,0.9,19.9,5.9s8,8,11,13s10,8,14,14
			s1,11.7,0,17.4c-1,5.6,2,6.8,2,12.7c0,5.9,1,13.1,0,16.5c-1,3.4-5.2,15.4-8.6,19.9c-3.4,4.5-13.2,0.5-22.8,3s-17.9,0.5-22.3,0
			s-16-0.5-20.7,0S136.2,127.7,135.4,126.2z"/>
		<path class="st1" d="M242.1,401.2c-17.5,6.5-13.5,0.5-13.5,0.5l3.9-1.5c0,0-7.4-1-6.4-3s0-6,2-6s-2-3,0-5s4.1-5.8,4.1-10.4
			c-0.1-4.6,2.3-13.6,5.6-17.1s7.3-7.4,7.3-11c0-3.5,2.1-10.8-10.5-44.2c-12-31.9-18-41.9-11-52.9c7-11,4.5-15.5,34-12c0,0,1,9,6,16
			c5,7,4,39,3,48s-1.5,16.5-1.5,30.5s2,9,1,31c-3,21-4,24-7,24s-11,11-14,12"/>
		<path class="st4" d="M244.6,593.7c3.7-16.5,5.4-25,0-56c0,0-2.5-15.5-2.5-17.5s-34.5-3.5-43.5,1.5h-2c1.3,10.5,1.8,22.6,0,31
			c-3,14-3,29.7,8,56.7s5,48,5,48s15-3,17,4s-5.4,11.8,0,17.3c10,10.1,18.3-0.8,14-17.9c-3-12-3-23-2-34S241.3,608.5,244.6,593.7z"
			/>
		<path class="st4" d="M75.6,515.7l-3,7c-13.6,45.5-3.6,66.5-2.7,77.9c1,12.4-4,28.6,0,21.6s24-15,25-1s3.2,22.1,3.2,22.1
			s4.5-8.6,1.5-18.6s2.3-24.6,4.3-27.6s10.5-18.9,13.2-39.9c1.8-14.1,3-17,3-17S112.6,503.7,75.6,515.7z"/>
		<path class="st4" d="M162.1,425.2c0,0-9-26-9-34s-3-37,2-29s3.5,20,14.8,26.5c11.2,6.5,12.2,10.7,23.7,23.1
			c11.5,12.4,23.2,18.3,15.3,18.8C201.1,431.2,179.1,435.2,162.1,425.2z"/>
		<path class="st6" d="M80.1,433.1c0,0,3.7-4.8,20.4-5.8c16.7-1,2.3,6.6,0,16.3s-3.3,6.7-3.3,19.7s-1,45-7,47s-16.2,9.1-13.6,1.6
			c2.6-7.6,7.2-22.8,7.4-36.2C84.1,462.2,80,435.9,80.1,433.1z"/>
		<path class="st6" d="M209,434.6c0,0-15.8,12.4-15.3,16.5c0.5,4.1-1.1,13,5.2,20c6.3,7.1,13,9,10.1,12c-2.8,3.1-5.8,8.1-1.8,12.1
			s26,15,21,14s-14.3-7.9-19.2-1.9c-4.8,5.9,12.6,10.4,8.4,11.7s-17.2,1.2-19.2,4.2s-6.7-13.9-7.3-29.4
			c-0.7-15.6-19.1-47.1-20.9-63.3c0,0,24.8,6.5,40.5,2.6"/>
		<path class="st7" d="M97.5,224.7c0,0,3.7-29.5,6.7-17.5s3.5,43.3,4.3,54.7c0.7,11.3,18.7,39.3,17.7,43.3s0,20-11,3
			S90.8,268.3,97.5,224.7z"/>
		<path class="st8" d="M69.6,619.7c0,0-5.3,24.6-7.4,31.6s-12.1,26.9-7.1,37.9s34.2,7.3,37.1,4.7c2.9-2.7,5.9-11.7,5.9-19.7
			s-2-21.8,0-26.9c2-5.1-2.8-31.4-5.9-33.3C89.1,612.2,83,602.4,69.6,619.7z"/>
		<path class="st8" d="M204.1,687.2c2.5,3.5,61.6,4,63.3,0s-6.3-9-8.3-12s-15-15-16-11s-2.5,15.9-7.2,16s-12.4-1.5-10.1-11.2
			s1.4-14.6-16.2-11.6c-10.5,1.8,1.2,10.8-0.6,17.3C207.1,681.2,201.6,683.7,204.1,687.2z"/>
		<path class="st7" d="M205.1,315.9c0,0,6.5-10.2,9.5-32.2s-3-65,2-87s-1,12.3,0,30.2s1,67.8,7,74.8s14,12,12.5,15.5
			s-5.6,8.6-12.5,4.5C218.6,318.7,202.6,323,205.1,315.9z"/>
		<path class="st7" d="M83.9,249.6c0,0,1.7-18.9,2.7-32.9s-1-12,3-19s7-36,5-20s-0.8,15.7-2.4,29.3c-1.6,13.7,0.3,17.4,0.4,29.7
			S80.2,259.6,83.9,249.6z"/>
		<path class="st2" d="M228.9,250.6c0,0-2.8,12,0,15.5c2.8,3.5-3.2,2.5,1.8,12.5s14,61.8,19.5,63.9s6.5,4.1,1.5,4.1
			s-4.2,8.8-14.6-34.6s-15-38.6-15.5-46C220.6,253.7,226.1,242.6,228.9,250.6z"/>
		<path class="st7" d="M207.3,522.4c0,0,1.5,19.5,0,44.3s4.3,34.8,7.4,54.3s0.1,0.5-9.9-20.5s-3-39.1,0-51.6
			C207.8,536.5,199.8,514.2,207.3,522.4z"/>
		<path class="st3" d="M198.6,177.7c-5-2-19-6-28.9-3.7s-13.1,12.7-20.1,14.7s-7,28-7,28c0,45,4,38,9.1,44.4
			c5.1,6.4,25.9,11.6,34.9,6.6c28-16,23-22,24.9-53.4C213.4,182.8,203.6,179.7,198.6,177.7z M193.6,222.9c-1,7.8-1,19.8-14,22.8
			s-21,1.9-19.5-16.5s1.4-24.8,1.4-24.8s4.6-14,20.4-12.8C196.6,192.7,194.6,215.1,193.6,222.9z"/>
		<path class="st3" d="M103.6,201.7l1-18l12.6-10.4h15.4c0,0-3,64.9-2.5,78.7l6.9,0.1v17.6h-24.2v-17.6l3.7-0.1l-1-60.5L103.6,201.7
			z"/>
		<path class="st2" d="M245.6,354.7c0,0-1.1,9.7,2.4,9.3c3.6-0.3,9-2.7,5.3,0s-0.9,5-3.3,6.8c-2.4,1.8-8.3,8.1-8.4,5
			S241.6,351.7,245.6,354.7z"/>
		<path class="st2" d="M231.6,399.7c0,0,10.8-1.6,12.4-1.3c1.6,0.3,6.4-2.4,0-2c-6.4,0.3-13.9,3-15.2,1.7c-1.2-1.3-2.3-1.1,1.2,1.3"
			/>
		<path class="st2" d="M230.6,391.7c0,0,13.6-0.7,15.8-1.3c2.2-0.7,8.2-5.4,8.2-5.4s-6.7,3-7.3,3.4c-0.6,0.4-15.6,3-16.6,1.7"/>
		<path class="st2" d="M238.2,384.1c0,0,8.5-0.4,12-2.9c3.5-2.5,8.5-6.5,8.5-6.5s-7,4.4-7.5,4.7c-0.5,0.3-9.5,4.3-11.5,3.3"/>
		<path class="st1" d="M228.6,401.7c1-1,2.7-1,3.9-1.5"/>
		<path class="st2" d="M75.1,324.2c0,0-7.5-8.2-4.3-5.6c3.3,2.6,4.3,4.6,4.3,4.6"/>
		<path class="st2" d="M77.1,330.2c0,0-11-1-11-3s-0.5-5,1.3-3s7.7,5,8.7,5"/>
		<path class="st2" d="M72.6,337.7c0,0-6.5-3.5-7.5-4.5s-2-2,2-1s8,3.3,10,3.6s0,3.3-2,1.8"/>
		<path class="st6" d="M78,318.6c0,0-3.8-1.4-3.8-4.4s0.8-5.5,1.9-6.3c1.1-0.7,0.7,2,1.9,4.6c1.2,2.6,1.8,4.4,2,5.5"/>
		<path class="st7" d="M77.9,519.6c0,0-12.7,34.4-9.3,56.9c0,0.3,0.1,0.5,0.1,0.8l0.9,1c-2-7.4,1-21.6,1.8-25.3
			c0.8-3.7,3.2-18.3,5.4-24.3S77.9,519.6,77.9,519.6z"/>
	</g>
</g>
</svg>
